<?xml version="1.0" encoding="utf-8"?>
<!-- Generator: Adobe Illustrator 26.3.1, SVG Export Plug-In . SVG Version: 6.00 Build 0)  -->
<svg version="1.1" id="Layer_1" xmlns="http://www.w3.org/2000/svg" xmlns:xlink="http://www.w3.org/1999/xlink" x="0px" y="0px"
	 viewBox="0 0 79 40" style="enable-background:new 0 0 79 40;" xml:space="preserve">
<style type="text/css">
	.st0{fill:#2B2B43;}
	.st1{fill:#D98E03;}
</style>
<path class="st0" d="M1.7,15.4c-0.5,0-0.9-0.1-1.2-0.4C0.1,14.7,0,14.3,0,13.8v-12c0-0.5,0.1-0.9,0.4-1.2c0.3-0.3,0.7-0.4,1.2-0.4
	h7.4c0.5,0,0.9,0.1,1.2,0.3c0.3,0.2,0.4,0.5,0.4,1c0,0.4-0.1,0.8-0.4,1C9.9,2.7,9.5,2.8,8.9,2.8H3.3v3.5h5.2c0.5,0,0.9,0.1,1.2,0.3
	c0.3,0.2,0.4,0.5,0.4,1c0,0.4-0.1,0.8-0.4,1C9.4,8.8,9,8.9,8.5,8.9H3.3v4.8c0,0.5-0.1,0.9-0.4,1.2C2.6,15.3,2.2,15.4,1.7,15.4z"/>
<path class="st0" d="M16.8,15.5c-1.1,0-2.1-0.2-2.9-0.7c-0.8-0.5-1.5-1.1-1.9-1.9c-0.5-0.8-0.7-1.8-0.7-2.9s0.2-2.1,0.7-2.9
	c0.5-0.8,1.1-1.5,1.9-1.9c0.8-0.4,1.8-0.7,2.9-0.7s2.1,0.2,2.9,0.7c0.8,0.4,1.5,1.1,1.9,1.9c0.5,0.8,0.7,1.8,0.7,2.9
	s-0.2,2.1-0.7,2.9c-0.5,0.8-1.1,1.4-1.9,1.9C18.9,15.3,18,15.5,16.8,15.5z M16.8,13c1.6,0,2.4-1,2.4-3c0-1-0.2-1.8-0.6-2.3
	c-0.4-0.5-1-0.7-1.7-0.7c-1.6,0-2.4,1-2.4,3S15.3,13,16.8,13z"/>
<path class="st0" d="M29.4,15.5c-1.1,0-2.1-0.2-2.9-0.7c-0.8-0.5-1.5-1.1-1.9-1.9c-0.5-0.8-0.7-1.8-0.7-2.9s0.2-2.1,0.7-2.9
	c0.5-0.8,1.1-1.5,1.9-1.9c0.8-0.4,1.8-0.7,2.9-0.7c1.1,0,2.1,0.2,2.9,0.7c0.8,0.4,1.5,1.1,1.9,1.9C34.8,7.9,35,8.9,35,10
	s-0.2,2.1-0.7,2.9c-0.5,0.8-1.1,1.4-1.9,1.9C31.5,15.3,30.5,15.5,29.4,15.5z M29.4,13c1.6,0,2.4-1,2.4-3c0-1-0.2-1.8-0.6-2.3
	c-0.4-0.5-1-0.7-1.7-0.7c-1.6,0-2.4,1-2.4,3S27.9,13,29.4,13z"/>
<path class="st0" d="M45.9,0.1c0.5,0,0.9,0.1,1.2,0.4c0.3,0.3,0.5,0.6,0.5,1.1v12.3c0,0.5-0.1,0.8-0.4,1.1c-0.3,0.3-0.7,0.4-1.2,0.4
	c-0.5,0-0.9-0.1-1.2-0.4c-0.3-0.3-0.4-0.7-0.4-1.1v-0.2c-0.3,0.5-0.8,1-1.3,1.3c-0.6,0.3-1.2,0.4-1.9,0.4c-0.9,0-1.7-0.2-2.4-0.7
	c-0.7-0.5-1.2-1.1-1.6-1.9C36.6,12,36.4,11,36.4,10c0-1.1,0.2-2,0.6-2.8c0.4-0.8,0.9-1.5,1.6-1.9c0.7-0.4,1.5-0.7,2.4-0.7
	c0.7,0,1.4,0.1,1.9,0.4c0.6,0.3,1,0.7,1.3,1.3V1.5c0-0.4,0.1-0.8,0.4-1C45.1,0.2,45.5,0.1,45.9,0.1z M42,13c0.8,0,1.3-0.3,1.7-0.8
	c0.4-0.5,0.6-1.3,0.6-2.2c0-1-0.2-1.7-0.6-2.2C43.4,7.3,42.8,7,42,7c-0.8,0-1.3,0.3-1.8,0.8C39.9,8.3,39.7,9,39.7,10
	c0,1,0.2,1.7,0.6,2.3C40.7,12.7,41.3,13,42,13z"/>
<path class="st1" d="M1.5,35.2c-0.5,0-0.8-0.1-1.1-0.4c-0.3-0.3-0.4-0.6-0.4-1c0-0.3,0.1-0.6,0.3-0.9c0.2-0.2,0.5-0.4,0.8-0.4l0.6,0
	c0.6,0,1-0.2,1.3-0.5c0.3-0.3,0.4-0.7,0.4-1.3v-9.1c0-0.5,0.1-0.9,0.4-1.2c0.3-0.3,0.7-0.4,1.2-0.4c0.5,0,0.9,0.1,1.2,0.4
	c0.3,0.3,0.4,0.7,0.4,1.2v9.1c0,0.9-0.2,1.7-0.5,2.4s-0.8,1.1-1.5,1.5c-0.7,0.4-1.5,0.6-2.5,0.6L1.5,35.2z"/>
<path class="st1" d="M14.4,35.2c-1.1,0-2.1-0.2-2.9-0.7s-1.5-1.1-1.9-1.9c-0.5-0.8-0.7-1.8-0.7-2.9c0-0.8,0.1-1.6,0.4-2.2
	c0.3-0.7,0.6-1.2,1.1-1.7c0.5-0.5,1.1-0.8,1.8-1.1c0.7-0.2,1.4-0.4,2.3-0.4c1.1,0,2.1,0.2,2.9,0.7s1.5,1.1,1.9,1.9
	c0.5,0.8,0.7,1.8,0.7,2.9c0,0.8-0.1,1.6-0.4,2.3c-0.3,0.7-0.6,1.2-1.1,1.7c-0.5,0.5-1.1,0.8-1.7,1.1C16,35.1,15.3,35.2,14.4,35.2z
	 M14.4,32.9c0.5,0,0.9-0.1,1.2-0.3c0.3-0.2,0.6-0.6,0.8-1c0.2-0.5,0.3-1,0.3-1.7c0-1-0.2-1.8-0.6-2.3c-0.4-0.5-1-0.7-1.7-0.7
	c-0.5,0-0.9,0.1-1.2,0.3c-0.3,0.2-0.6,0.5-0.8,1c-0.2,0.5-0.3,1-0.3,1.7c0,1,0.2,1.8,0.6,2.3C13.2,32.6,13.7,32.9,14.4,32.9z"/>
<path class="st1" d="M23.5,22.8c-0.6,0-1-0.1-1.3-0.4c-0.3-0.3-0.5-0.7-0.5-1.2c0-0.5,0.2-0.9,0.5-1.2c0.3-0.3,0.8-0.4,1.3-0.4
	c0.6,0,1,0.1,1.4,0.4c0.3,0.3,0.5,0.7,0.5,1.2c0,0.5-0.2,0.9-0.5,1.2C24.5,22.6,24.1,22.8,23.5,22.8z M23.5,35.2
	c-0.5,0-0.9-0.2-1.2-0.5c-0.3-0.3-0.4-0.7-0.4-1.3v-7.3c0-0.6,0.1-1,0.4-1.3c0.3-0.3,0.7-0.4,1.2-0.4c0.5,0,0.9,0.1,1.2,0.4
	c0.3,0.3,0.4,0.7,0.4,1.3v7.3c0,0.6-0.1,1-0.4,1.3C24.4,35.1,24,35.2,23.5,35.2z"/>
<path class="st1" d="M29.2,35.2c-0.5,0-0.9-0.1-1.2-0.4c-0.3-0.3-0.4-0.7-0.4-1.2v-7.5c0-0.5,0.1-0.9,0.4-1.2s0.7-0.4,1.2-0.4
	c0.5,0,0.9,0.1,1.1,0.4s0.4,0.7,0.4,1.2v1.2l-0.2-0.7c0.3-0.7,0.8-1.2,1.4-1.6s1.4-0.6,2.2-0.6c0.8,0,1.5,0.2,2.1,0.5
	s0.9,0.8,1.2,1.5c0.3,0.6,0.4,1.5,0.4,2.5v4.8c0,0.5-0.1,0.9-0.4,1.2c-0.3,0.3-0.7,0.4-1.2,0.4c-0.5,0-0.9-0.1-1.2-0.4
	c-0.3-0.3-0.4-0.7-0.4-1.2v-4.7c0-0.7-0.1-1.2-0.4-1.6c-0.3-0.3-0.7-0.5-1.2-0.5c-0.7,0-1.2,0.2-1.6,0.6c-0.4,0.4-0.6,1-0.6,1.7v4.4
	C30.8,34.7,30.2,35.2,29.2,35.2z"/>
<path class="st1" d="M45.3,35.2c-1,0-1.8-0.2-2.4-0.5s-1.1-0.8-1.5-1.4c-0.3-0.6-0.5-1.4-0.5-2.4v-4H40c-0.4,0-0.7-0.1-0.9-0.3
	s-0.3-0.5-0.3-0.9s0.1-0.7,0.3-0.9c0.2-0.2,0.5-0.3,0.9-0.3h0.9V23c0-0.5,0.1-0.9,0.4-1.2c0.3-0.3,0.7-0.4,1.2-0.4
	c0.5,0,0.9,0.1,1.2,0.4c0.3,0.3,0.4,0.7,0.4,1.2v1.6h2c0.4,0,0.7,0.1,0.9,0.3c0.2,0.2,0.3,0.5,0.3,0.9s-0.1,0.7-0.3,0.9
	S46.5,27,46.1,27h-2v3.9c0,0.6,0.1,1,0.4,1.3c0.3,0.3,0.7,0.4,1.3,0.4c0.2,0,0.4,0,0.6-0.1c0.2,0,0.3-0.1,0.5-0.1
	c0.2,0,0.4,0,0.5,0.2c0.1,0.1,0.2,0.4,0.2,0.9c0,0.4-0.1,0.7-0.2,0.9c-0.1,0.3-0.3,0.4-0.6,0.5c-0.2,0.1-0.4,0.1-0.8,0.2
	C45.8,35.2,45.5,35.2,45.3,35.2z"/>
</svg>
