<?xml version="1.0" encoding="utf-8"?>
<!-- Generator: Adobe Illustrator 26.3.1, SVG Export Plug-In . SVG Version: 6.00 Build 0)  -->
<svg version="1.1" id="Layer_1" xmlns="http://www.w3.org/2000/svg" xmlns:xlink="http://www.w3.org/1999/xlink" x="0px" y="0px"
	 viewBox="0 0 1080 1080" style="enable-background:new 0 0 1080 1080;" xml:space="preserve">
<style type="text/css">
	.st0{fill:none;stroke:#C7C8D2;stroke-width:1.5;stroke-linecap:round;stroke-linejoin:round;}
	.st1{fill:#FFFFFF;}
	.st2{clip-path:url(#SVGID_00000078002912779110407290000018203981004622710434_);}
	.st3{clip-path:url(#SVGID_00000145770009591215765340000010262754119786477987_);}
</style>
<path class="st0" d="M543.3,538.3c0,0.9-0.4,1.7-1,2.4c-0.6,0.6-1.5,1-2.4,1c-0.9,0-1.7-0.4-2.4-1c-0.6-0.6-1-1.5-1-2.4"/>
<polygon class="st1" points="540,530.5 543.1,536.8 550,537.8 545,542.6 546.2,549.5 540,546.3 533.8,549.5 535,542.6 530,537.8 
	536.9,536.8 "/>
<g>
	<g>
		<defs>
			<rect id="SVGID_1_" x="1366.7" y="407.1" width="431.3" height="411.8"/>
		</defs>
		<clipPath id="SVGID_00000019642819175539179720000017822866575057230258_">
			<use xlink:href="#SVGID_1_"  style="overflow:visible;"/>
		</clipPath>
		<g style="clip-path:url(#SVGID_00000019642819175539179720000017822866575057230258_);">
			<defs>
				<rect id="SVGID_00000163031590348165617630000010936193441728577464_" x="1366.7" y="407.1" width="431.3" height="411.8"/>
			</defs>
			<clipPath id="SVGID_00000014625035197747868070000009817654892336425872_">
				<use xlink:href="#SVGID_00000163031590348165617630000010936193441728577464_"  style="overflow:visible;"/>
			</clipPath>
			<g style="clip-path:url(#SVGID_00000014625035197747868070000009817654892336425872_);">
				<g>
					<defs>
						<rect id="SVGID_00000181807335245168185300000007996013304996628156_" x="1366.7" y="407.1" width="431.3" height="411.8"/>
					</defs>
					<clipPath id="SVGID_00000128475087025919342960000002369188224105603253_">
						<use xlink:href="#SVGID_00000181807335245168185300000007996013304996628156_"  style="overflow:visible;"/>
					</clipPath>
					<g transform="matrix(1 0 0 1 0 0)" style="clip-path:url(#SVGID_00000128475087025919342960000002369188224105603253_);">
						
							<image style="overflow:visible;" width="1797" height="1716" xlink:href="AF01AB7C7D1464F8.png"  transform="matrix(0.24 0 0 0.24 1366.6941 407.0705)">
						</image>
					</g>
				</g>
			</g>
		</g>
	</g>
</g>
<g id="JBC9jW.tif">
	
		<image style="overflow:visible;" width="1388" height="1365" id="Layer_1_00000176736283832774249140000007642889089242881159_" xlink:href="AF01AB7C7D1464F9.png"  transform="matrix(9.732021e-02 0 0 9.732021e-02 944.9196 -11.2659)">
	</image>
</g>
</svg>
